<svg xmlns="http://www.w3.org/2000/svg" width="39.9" height="31" viewBox="0 0 39.9 31">
  <path id="Path_1356" data-name="Path 1356" d="M50.5,37.2v8.85a4.46,4.46,0,0,1-4.45,4.45H37.2a4.46,4.46,0,0,1-4.45-4.45V37.2a17.7,17.7,0,0,1,17.7-17.7v6.25a12.3,12.3,0,0,0-10.3,7.05h5.9A4.417,4.417,0,0,1,50.5,37.2ZM23.9,50.5H15.05a4.46,4.46,0,0,1-4.45-4.45V37.2A17.7,17.7,0,0,1,28.3,19.5v6.25A12.3,12.3,0,0,0,18,32.8h5.9a4.46,4.46,0,0,1,4.45,4.45V46.1A4.45,4.45,0,0,1,23.9,50.5Z" transform="translate(-10.6 -19.5)" fill="#805fb5" fill-rule="evenodd" opacity="0.38"/>
</svg>
